<?xml version="1.0" encoding="utf-8"?>
<!-- Generator: Adobe Illustrator 24.2.2, SVG Export Plug-In . SVG Version: 6.00 Build 0)  -->
<svg version="1.1" xmlns="http://www.w3.org/2000/svg" xmlns:xlink="http://www.w3.org/1999/xlink" x="0px" y="0px"
	 viewBox="0 0 500 500" style="enable-background:new 0 0 500 500;" xml:space="preserve">
<style type="text/css">
	.st0{display:none;}
	.st1{display:inline;fill:#FFFFFF;}
	.st2{display:inline;}
	.st3{fill:#007285;}
	.st4{font-family:'Montserrat-Bold';}
	.st5{font-size:60.0817px;}
	.st6{letter-spacing:3;}
</style>
<g id="Background_1_" class="st0">
	<rect id="Background" class="st1" width="500" height="500"/>
</g>
<g id="View_1" class="st0">
	<g id="Text" class="st2">
		<g id="Shapes">
			<path class="st3" d="M266.58,254.33c0.7-1.95,2.15-3.52,4.05-4.35c9.88-4.3,40.48-15.44,51.55-15.78
				c5.88-0.17,17.42-0.53,34,7.99c3.54,1.82,7.89,0.66,9.95-2.75l0.14-0.23c2.29-3.77,0.83-8.68-3.11-10.65
				c-0.13-0.07-0.26-0.13-0.4-0.2c-3.12-1.55-4.74-5.01-4-8.41c1.77-8.05,2.69-16.28,2.69-24.62c0-63.62-51.76-115.39-115.39-115.39
				c-61.93,0-112.56,48.43-115.27,110.25c-0.01,0.28-0.1,3.43-0.15,6.84c-0.06,4.5,3.8,8.05,8.27,7.6l0.32-0.03
				c3.81-0.38,6.72-3.56,6.77-7.38c0.04-2.79,0.09-5.55,0.13-6.36c2.35-53.58,46.24-95.55,99.92-95.55
				c55.15,0,100.01,44.87,100.01,100.01c0,6.13-0.56,12.18-1.66,18.13c-0.74,3.99-4.5,6.69-8.52,6.1
				c-6.28-0.92-11.12-0.82-14.2-0.73c-11.18,0.34-31.09,3.16-45.2,8.11c-4.72,1.66-9.71-1.64-10.01-6.63
				c-1.22-19.77-2.89-37.34-15.46-48.11c-2.86-2.45-7.06-2.45-9.93,0c-12.74,10.91-14.16,28.7-15.31,48.8
				c-0.27,4.76-4.85,8.11-9.45,6.84c-26.76-7.41-70.65-2.49-72.3-2.24l-0.2,0.03c-4.73,0.72-7.59,5.61-5.91,10.08l0.07,0.19
				c16.81,44.76,60.23,74.83,108.05,74.83c34.53,0,67.27-15.59,89.1-42.08c2.79-3.38,2.14-8.41-1.42-10.95l-0.24-0.17
				c-3.19-2.27-7.64-1.77-10.12,1.25c-18.93,23.02-47.34,36.57-77.32,36.57c-33.39,0-64.31-16.91-82.69-43.76
				c-3.54-5.18,0.41-12.15,6.68-11.78c18.7,1.1,45.43,5.44,54.75,11.67c1.42,0.95,9.47,21.1,15.81,36.44
				c2.63,6.36,11.71,6.14,14.03-0.34L266.58,254.33z"/>
			<path class="st3" d="M259.03,147.69l-10.25,6.12c-1.85,1.11-4.16,1.14-6.04,0.09l-10.42-5.81c-1.89-1.05-3.07-3.03-3.1-5.19
				l-0.18-11.93c-0.03-2.16,1.09-4.17,2.94-5.28l10.25-6.12c1.85-1.11,4.16-1.14,6.04-0.09l10.42,5.81c1.89,1.05,3.07,3.03,3.1,5.19
				l0.18,11.93C262.01,144.57,260.88,146.58,259.03,147.69z"/>
		</g>
		<g>
			<text transform="matrix(1 0 0 1 147.6536 419.6285)" class="st3 st4 st5 st6">IOSYS</text>
		</g>
	</g>
</g>
<g id="Logo_Only">
	<g>
		<path class="st3" d="M287.37,374.13c1.47-4.09,4.52-7.39,8.5-9.12c20.74-9.04,85-32.42,108.24-33.14
			c12.35-0.36,36.58-1.11,71.38,16.77c7.44,3.82,16.56,1.38,20.89-5.77l0.29-0.49c4.8-7.92,1.75-18.22-6.53-22.37
			c-0.28-0.14-0.55-0.28-0.83-0.41c-6.55-3.25-9.96-10.51-8.39-17.65c3.71-16.89,5.64-34.18,5.64-51.68
			C486.57,116.68,377.89,8,244.3,8C114.27,8,7.97,109.68,2.28,239.49c-0.03,0.58-0.2,7.21-0.3,14.37
			c-0.13,9.44,7.97,16.9,17.36,15.96l0.68-0.07c7.99-0.8,14.12-7.47,14.22-15.5c0.08-5.86,0.2-11.65,0.27-13.34
			C39.44,128.4,131.6,40.27,244.3,40.27c115.79,0,209.99,94.2,209.99,209.99c0,12.86-1.18,25.58-3.48,38.07
			c-1.55,8.39-9.45,14.04-17.89,12.81c-13.18-1.92-23.34-1.73-29.81-1.53c-23.48,0.72-65.28,6.63-94.89,17.02
			c-9.91,3.48-20.38-3.44-21.03-13.92c-2.57-41.51-6.08-78.4-32.45-101.01c-6.01-5.15-14.83-5.15-20.85,0
			c-26.75,22.9-29.73,60.26-32.15,102.45c-0.57,9.99-10.19,17.03-19.84,14.36c-56.19-15.55-148.33-5.23-151.8-4.7l-0.41,0.06
			c-9.92,1.51-15.94,11.77-12.41,21.17l0.15,0.39c35.3,93.97,126.46,157.1,226.86,157.1c72.51,0,141.25-32.74,187.08-88.34
			c5.85-7.09,4.5-17.66-2.99-22.99l-0.5-0.35c-6.7-4.77-16.04-3.72-21.26,2.63c-39.74,48.33-99.41,76.78-162.34,76.78
			c-70.11,0-135.02-35.5-173.61-91.88c-7.44-10.87,0.87-25.5,14.02-24.73c39.27,2.31,95.38,11.42,114.96,24.51
			c2.99,1.99,19.89,44.3,33.19,76.5c5.52,13.36,24.58,12.89,29.46-0.71L287.37,374.13z"/>
		<path class="st3" d="M274.8,148.25l-28.1,16.79c-1.85,1.11-4.16,1.14-6.04,0.09l-28.59-15.94c-1.89-1.05-3.07-3.03-3.1-5.19
			l-0.49-32.73c-0.03-2.16,1.09-4.17,2.94-5.28l28.1-16.79c1.85-1.11,4.16-1.14,6.04-0.09l28.59,15.94c1.89,1.05,3.07,3.03,3.1,5.19
			l0.49,32.73C277.78,145.13,276.66,147.14,274.8,148.25z"/>
	</g>
</g>
</svg>
