<?xml version="1.0" encoding="utf-8"?>
<!-- Generator: Adobe Illustrator 24.2.2, SVG Export Plug-In . SVG Version: 6.00 Build 0)  -->
<svg version="1.1" xmlns="http://www.w3.org/2000/svg" xmlns:xlink="http://www.w3.org/1999/xlink" x="0px" y="0px"
	 viewBox="0 0 327.9 104.6" style="enable-background:new 0 0 327.9 104.6;" xml:space="preserve">
<style type="text/css">
	.st0{fill:#007285;}
</style>
<g id="Layer_1">
	<g>
		<g>
			<path class="st0" d="M117.25,25.36h10.63V71.3h-10.63V25.36z"/>
			<path class="st0" d="M151.41,69c-3.83-2.06-6.83-4.89-8.99-8.5c-2.17-3.61-3.25-7.67-3.25-12.17c0-4.51,1.08-8.56,3.25-12.17
				c2.17-3.61,5.16-6.44,8.99-8.5c3.83-2.06,8.13-3.08,12.9-3.08c4.77,0,9.06,1.03,12.86,3.08c3.81,2.06,6.8,4.89,8.99,8.5
				c2.19,3.61,3.28,7.67,3.28,12.17c0,4.51-1.09,8.56-3.28,12.17c-2.19,3.61-5.18,6.44-8.99,8.5s-8.09,3.08-12.86,3.08
				C159.53,72.08,155.24,71.06,151.41,69z M171.65,61.16c2.19-1.25,3.9-2.99,5.15-5.22s1.87-4.77,1.87-7.61
				c0-2.84-0.62-5.38-1.87-7.61s-2.96-3.97-5.15-5.22c-2.19-1.25-4.64-1.87-7.35-1.87c-2.71,0-5.16,0.62-7.35,1.87
				c-2.19,1.25-3.9,2.99-5.15,5.22c-1.25,2.23-1.87,4.77-1.87,7.61c0,2.84,0.62,5.38,1.87,7.61c1.25,2.23,2.96,3.97,5.15,5.22
				c2.19,1.25,4.64,1.87,7.35,1.87C167.02,63.03,169.47,62.41,171.65,61.16z"/>
			<path class="st0" d="M205.29,70.61c-3.39-0.98-6.12-2.26-8.17-3.84l3.61-8.01c1.97,1.44,4.31,2.6,7.02,3.48
				c2.71,0.88,5.42,1.31,8.14,1.31c3.02,0,5.25-0.45,6.69-1.35c1.44-0.9,2.17-2.09,2.17-3.58c0-1.09-0.43-2-1.28-2.72
				c-0.85-0.72-1.95-1.3-3.28-1.74c-1.33-0.44-3.14-0.92-5.41-1.44c-3.5-0.83-6.37-1.66-8.6-2.49c-2.23-0.83-4.15-2.17-5.74-4
				c-1.6-1.84-2.4-4.29-2.4-7.35c0-2.67,0.72-5.09,2.17-7.25c1.44-2.17,3.62-3.88,6.53-5.15c2.91-1.27,6.46-1.9,10.67-1.9
				c2.93,0,5.8,0.35,8.6,1.05c2.8,0.7,5.25,1.71,7.35,3.02l-3.28,8.07c-4.24-2.41-8.49-3.61-12.73-3.61c-2.98,0-5.17,0.48-6.59,1.44
				c-1.42,0.96-2.13,2.23-2.13,3.81c0,1.58,0.82,2.75,2.46,3.51c1.64,0.77,4.14,1.52,7.51,2.26c3.5,0.83,6.37,1.66,8.6,2.49
				c2.23,0.83,4.14,2.14,5.74,3.94c1.6,1.79,2.4,4.22,2.4,7.28c0,2.63-0.73,5.02-2.2,7.19c-1.47,2.17-3.67,3.88-6.6,5.15
				c-2.93,1.27-6.5,1.9-10.7,1.9C212.19,72.08,208.68,71.59,205.29,70.61z"/>
			<path class="st0" d="M266.95,55.02V71.3h-10.63V54.89l-17.79-29.53h11.29l12.27,20.41l12.27-20.41h10.44L266.95,55.02z"/>
			<path class="st0" d="M296.12,70.61c-3.39-0.98-6.12-2.26-8.17-3.84l3.61-8.01c1.97,1.44,4.31,2.6,7.02,3.48
				c2.71,0.88,5.42,1.31,8.14,1.31c3.02,0,5.25-0.45,6.69-1.35c1.44-0.9,2.17-2.09,2.17-3.58c0-1.09-0.43-2-1.28-2.72
				c-0.85-0.72-1.95-1.3-3.28-1.74c-1.33-0.44-3.14-0.92-5.41-1.44c-3.5-0.83-6.37-1.66-8.6-2.49c-2.23-0.83-4.15-2.17-5.74-4
				c-1.6-1.84-2.4-4.29-2.4-7.35c0-2.67,0.72-5.09,2.17-7.25c1.44-2.17,3.62-3.88,6.53-5.15c2.91-1.27,6.46-1.9,10.67-1.9
				c2.93,0,5.8,0.35,8.6,1.05c2.8,0.7,5.25,1.71,7.35,3.02l-3.28,8.07c-4.24-2.41-8.49-3.61-12.73-3.61c-2.98,0-5.17,0.48-6.59,1.44
				c-1.42,0.96-2.13,2.23-2.13,3.81c0,1.58,0.82,2.75,2.46,3.51c1.64,0.77,4.14,1.52,7.51,2.26c3.5,0.83,6.37,1.66,8.6,2.49
				c2.23,0.83,4.14,2.14,5.74,3.94c1.6,1.79,2.4,4.22,2.4,7.28c0,2.63-0.73,5.02-2.2,7.19c-1.47,2.17-3.67,3.88-6.6,5.15
				c-2.93,1.27-6.5,1.9-10.7,1.9C303.02,72.08,299.51,71.59,296.12,70.61z"/>
		</g>
	</g>
	<path class="st0" d="M61.61,79.04c0.32-0.88,0.98-1.6,1.83-1.97c4.48-1.95,18.35-7,23.37-7.15c2.67-0.08,7.9-0.24,15.41,3.62
		c1.61,0.83,3.57,0.3,4.51-1.25l0.06-0.1c1.04-1.71,0.38-3.93-1.41-4.83c-0.06-0.03-0.12-0.06-0.18-0.09
		c-1.41-0.7-2.15-2.27-1.81-3.81c0.8-3.65,1.22-7.38,1.22-11.16c0-28.84-23.46-52.3-52.3-52.3C24.24,0,1.29,21.95,0.07,49.97
		C0.06,50.1,0.02,51.53,0,53.07c-0.03,2.04,1.72,3.65,3.75,3.44L3.9,56.5c1.73-0.17,3.05-1.61,3.07-3.35
		c0.02-1.27,0.04-2.51,0.06-2.88C8.09,25.99,27.98,6.97,52.31,6.97c25,0,45.33,20.34,45.33,45.33c0,2.78-0.25,5.52-0.75,8.22
		c-0.33,1.81-2.04,3.03-3.86,2.77c-2.84-0.42-5.04-0.37-6.43-0.33c-5.07,0.15-14.09,1.43-20.49,3.67c-2.14,0.75-4.4-0.74-4.54-3.01
		c-0.55-8.96-1.31-16.93-7.01-21.81c-1.3-1.11-3.2-1.11-4.5,0c-5.77,4.94-6.42,13.01-6.94,22.12c-0.12,2.16-2.2,3.68-4.28,3.1
		C26.71,63.68,6.82,65.9,6.07,66.02l-0.09,0.01c-2.14,0.33-3.44,2.54-2.68,4.57l0.03,0.08c7.62,20.29,27.3,33.92,48.97,33.92
		c15.65,0,30.49-7.07,40.39-19.07c1.26-1.53,0.97-3.81-0.64-4.96l-0.11-0.08c-1.45-1.03-3.46-0.8-4.59,0.57
		C78.78,91.49,65.9,97.63,52.31,97.63c-15.13,0-29.15-7.66-37.48-19.84c-1.61-2.35,0.19-5.51,3.03-5.34
		c8.48,0.5,20.59,2.46,24.82,5.29c0.65,0.43,4.29,9.56,7.16,16.52c1.19,2.88,5.31,2.78,6.36-0.15L61.61,79.04z"/>
	<path class="st0" d="M56.55,31.68l-1.37,0.82c-1.85,1.11-4.16,1.14-6.04,0.09l-1.39-0.78c-1.89-1.05-3.07-3.03-3.1-5.19l-0.02-1.59
		c-0.03-2.16,1.09-4.17,2.94-5.28l1.37-0.82c1.85-1.11,4.16-1.14,6.04-0.09l1.39,0.78c1.89,1.05,3.07,3.03,3.1,5.19l0.02,1.59
		C59.52,28.56,58.4,30.57,56.55,31.68z"/>
</g>
<g id="Layer_2">
</g>
</svg>
